<mxfile host="app.diagrams.net" modified="2024-03-06T11:08:50.418Z" agent="Mozilla/5.0 (X11; Linux x86_64) AppleWebKit/537.36 (KHTML, like Gecko) Chrome/122.0.0.0 Safari/537.36" etag="K87mLueErknT0ggFtujq" version="24.0.1" type="device">
  <diagram name="Страница — 1" id="zTqRHK8zcVlRSC7SK9ZB">
    <mxGraphModel dx="1762" dy="956" grid="1" gridSize="10" guides="1" tooltips="1" connect="1" arrows="1" fold="1" page="1" pageScale="1" pageWidth="827" pageHeight="1169" math="0" shadow="0">
      <root>
        <mxCell id="0" />
        <mxCell id="1" parent="0" />
        <mxCell id="SBZL3jEJlygg7BhI3k88-19" value="" style="ellipse;whiteSpace=wrap;html=1;aspect=fixed;" vertex="1" parent="1">
          <mxGeometry x="39" y="69" width="760" height="760" as="geometry" />
        </mxCell>
        <mxCell id="SBZL3jEJlygg7BhI3k88-16" value="" style="ellipse;whiteSpace=wrap;html=1;aspect=fixed;" vertex="1" parent="1">
          <mxGeometry x="120" y="149" width="601" height="601" as="geometry" />
        </mxCell>
        <mxCell id="SBZL3jEJlygg7BhI3k88-5" value="" style="ellipse;whiteSpace=wrap;html=1;aspect=fixed;" vertex="1" parent="1">
          <mxGeometry x="200" y="230" width="440" height="440" as="geometry" />
        </mxCell>
        <mxCell id="SBZL3jEJlygg7BhI3k88-2" value="" style="ellipse;whiteSpace=wrap;html=1;aspect=fixed;" vertex="1" parent="1">
          <mxGeometry x="320" y="350" width="200" height="200" as="geometry" />
        </mxCell>
        <mxCell id="SBZL3jEJlygg7BhI3k88-15" value="" style="rounded=0;whiteSpace=wrap;html=1;" vertex="1" parent="1">
          <mxGeometry x="410" y="70" width="20" height="759" as="geometry" />
        </mxCell>
        <mxCell id="SBZL3jEJlygg7BhI3k88-6" value="adopt" style="rounded=0;whiteSpace=wrap;html=1;" vertex="1" parent="1">
          <mxGeometry x="320" y="439" width="90" height="20" as="geometry" />
        </mxCell>
        <mxCell id="SBZL3jEJlygg7BhI3k88-11" value="adopt" style="rounded=0;whiteSpace=wrap;html=1;" vertex="1" parent="1">
          <mxGeometry x="430" y="439" width="90" height="20" as="geometry" />
        </mxCell>
        <mxCell id="SBZL3jEJlygg7BhI3k88-12" value="trial" style="rounded=0;whiteSpace=wrap;html=1;" vertex="1" parent="1">
          <mxGeometry x="200" y="439" width="120" height="20" as="geometry" />
        </mxCell>
        <mxCell id="SBZL3jEJlygg7BhI3k88-13" value="trial" style="rounded=0;whiteSpace=wrap;html=1;" vertex="1" parent="1">
          <mxGeometry x="520" y="439" width="120" height="20" as="geometry" />
        </mxCell>
        <mxCell id="SBZL3jEJlygg7BhI3k88-17" value="assess&lt;span style=&quot;color: rgba(0, 0, 0, 0); font-family: monospace; font-size: 0px; text-align: start; text-wrap: nowrap;&quot;&gt;%3CmxGraphModel%3E%3Croot%3E%3CmxCell%20id%3D%220%22%2F%3E%3CmxCell%20id%3D%221%22%20parent%3D%220%22%2F%3E%3CmxCell%20id%3D%222%22%20value%3D%22adopt%22%20style%3D%22rounded%3D0%3BwhiteSpace%3Dwrap%3Bhtml%3D1%3B%22%20vertex%3D%221%22%20parent%3D%221%22%3E%3CmxGeometry%20x%3D%22520%22%20y%3D%22289%22%20width%3D%22120%22%20height%3D%2220%22%20as%3D%22geometry%22%2F%3E%3C%2FmxCell%3E%3C%2Froot%3E%3C%2FmxGraphModel%3E&lt;/span&gt;" style="rounded=0;whiteSpace=wrap;html=1;" vertex="1" parent="1">
          <mxGeometry x="640" y="439" width="80" height="20" as="geometry" />
        </mxCell>
        <mxCell id="SBZL3jEJlygg7BhI3k88-18" value="hold" style="rounded=0;whiteSpace=wrap;html=1;" vertex="1" parent="1">
          <mxGeometry x="720" y="439" width="80" height="20" as="geometry" />
        </mxCell>
        <mxCell id="SBZL3jEJlygg7BhI3k88-20" value="assess&lt;span style=&quot;color: rgba(0, 0, 0, 0); font-family: monospace; font-size: 0px; text-align: start; text-wrap: nowrap;&quot;&gt;%3CmxGraphModel%3E%3Croot%3E%3CmxCell%20id%3D%220%22%2F%3E%3CmxCell%20id%3D%221%22%20parent%3D%220%22%2F%3E%3CmxCell%20id%3D%222%22%20value%3D%22adopt%22%20style%3D%22rounded%3D0%3BwhiteSpace%3Dwrap%3Bhtml%3D1%3B%22%20vertex%3D%221%22%20parent%3D%221%22%3E%3CmxGeometry%20x%3D%22520%22%20y%3D%22289%22%20width%3D%22120%22%20height%3D%2220%22%20as%3D%22geometry%22%2F%3E%3C%2FmxCell%3E%3C%2Froot%3E%3C%2FmxGraphModel%3E&lt;/span&gt;" style="rounded=0;whiteSpace=wrap;html=1;" vertex="1" parent="1">
          <mxGeometry x="120" y="439" width="80" height="20" as="geometry" />
        </mxCell>
        <mxCell id="SBZL3jEJlygg7BhI3k88-21" value="hold" style="rounded=0;whiteSpace=wrap;html=1;" vertex="1" parent="1">
          <mxGeometry x="40" y="439" width="80" height="20" as="geometry" />
        </mxCell>
        <mxCell id="SBZL3jEJlygg7BhI3k88-24" value="&lt;font style=&quot;font-size: 20px;&quot;&gt;Tools&lt;/font&gt;" style="text;html=1;align=center;verticalAlign=middle;whiteSpace=wrap;rounded=0;" vertex="1" parent="1">
          <mxGeometry x="38" y="29" width="72" height="40" as="geometry" />
        </mxCell>
        <mxCell id="SBZL3jEJlygg7BhI3k88-25" value="&lt;font style=&quot;font-size: 20px;&quot;&gt;Languages and frameworks&lt;/font&gt;" style="text;html=1;align=center;verticalAlign=middle;whiteSpace=wrap;rounded=0;" vertex="1" parent="1">
          <mxGeometry x="530" y="29" width="258" height="40" as="geometry" />
        </mxCell>
        <mxCell id="SBZL3jEJlygg7BhI3k88-26" value="&lt;font style=&quot;font-size: 20px;&quot;&gt;Techniques&lt;/font&gt;" style="text;html=1;align=center;verticalAlign=middle;whiteSpace=wrap;rounded=0;" vertex="1" parent="1">
          <mxGeometry x="680" y="829" width="118" height="40" as="geometry" />
        </mxCell>
        <mxCell id="SBZL3jEJlygg7BhI3k88-27" value="&lt;font style=&quot;font-size: 20px;&quot;&gt;Platforms &amp;amp; infrastructure&lt;/font&gt;" style="text;html=1;align=center;verticalAlign=middle;whiteSpace=wrap;rounded=0;" vertex="1" parent="1">
          <mxGeometry x="40" y="829" width="240" height="40" as="geometry" />
        </mxCell>
        <mxCell id="SBZL3jEJlygg7BhI3k88-28" value="1" style="ellipse;whiteSpace=wrap;html=1;aspect=fixed;" vertex="1" parent="1">
          <mxGeometry x="360" y="400" width="20" height="20" as="geometry" />
        </mxCell>
        <mxCell id="SBZL3jEJlygg7BhI3k88-29" value="2" style="ellipse;whiteSpace=wrap;html=1;aspect=fixed;" vertex="1" parent="1">
          <mxGeometry x="290" y="390" width="20" height="20" as="geometry" />
        </mxCell>
        <mxCell id="SBZL3jEJlygg7BhI3k88-30" value="3" style="ellipse;whiteSpace=wrap;html=1;aspect=fixed;" vertex="1" parent="1">
          <mxGeometry x="160" y="370" width="20" height="20" as="geometry" />
        </mxCell>
        <mxCell id="SBZL3jEJlygg7BhI3k88-31" value="4" style="ellipse;whiteSpace=wrap;html=1;aspect=fixed;" vertex="1" parent="1">
          <mxGeometry x="180" y="320" width="20" height="20" as="geometry" />
        </mxCell>
        <mxCell id="SBZL3jEJlygg7BhI3k88-32" value="5" style="ellipse;whiteSpace=wrap;html=1;aspect=fixed;" vertex="1" parent="1">
          <mxGeometry x="230" y="270" width="20" height="20" as="geometry" />
        </mxCell>
        <mxCell id="SBZL3jEJlygg7BhI3k88-33" value="7" style="ellipse;whiteSpace=wrap;html=1;aspect=fixed;" vertex="1" parent="1">
          <mxGeometry x="355" y="500" width="20" height="20" as="geometry" />
        </mxCell>
        <mxCell id="SBZL3jEJlygg7BhI3k88-34" value="6" style="ellipse;whiteSpace=wrap;html=1;aspect=fixed;" vertex="1" parent="1">
          <mxGeometry x="340" y="470" width="20" height="20" as="geometry" />
        </mxCell>
        <mxCell id="SBZL3jEJlygg7BhI3k88-35" value="9" style="ellipse;whiteSpace=wrap;html=1;aspect=fixed;" vertex="1" parent="1">
          <mxGeometry x="280" y="680" width="20" height="20" as="geometry" />
        </mxCell>
        <mxCell id="SBZL3jEJlygg7BhI3k88-36" value="8" style="ellipse;whiteSpace=wrap;html=1;aspect=fixed;" vertex="1" parent="1">
          <mxGeometry x="230" y="650" width="20" height="20" as="geometry" />
        </mxCell>
        <mxCell id="SBZL3jEJlygg7BhI3k88-39" value="10" style="ellipse;whiteSpace=wrap;html=1;aspect=fixed;" vertex="1" parent="1">
          <mxGeometry x="200" y="580" width="20" height="20" as="geometry" />
        </mxCell>
        <mxCell id="SBZL3jEJlygg7BhI3k88-40" value="11" style="ellipse;whiteSpace=wrap;html=1;aspect=fixed;" vertex="1" parent="1">
          <mxGeometry x="160" y="520" width="20" height="20" as="geometry" />
        </mxCell>
        <mxCell id="SBZL3jEJlygg7BhI3k88-42" value="13" style="ellipse;whiteSpace=wrap;html=1;aspect=fixed;" vertex="1" parent="1">
          <mxGeometry x="430" y="399" width="20" height="20" as="geometry" />
        </mxCell>
        <mxCell id="SBZL3jEJlygg7BhI3k88-43" value="14" style="ellipse;whiteSpace=wrap;html=1;aspect=fixed;" vertex="1" parent="1">
          <mxGeometry x="450" y="419" width="20" height="20" as="geometry" />
        </mxCell>
        <mxCell id="SBZL3jEJlygg7BhI3k88-44" value="12" style="ellipse;whiteSpace=wrap;html=1;aspect=fixed;" vertex="1" parent="1">
          <mxGeometry x="430" y="419" width="20" height="20" as="geometry" />
        </mxCell>
        <mxCell id="SBZL3jEJlygg7BhI3k88-47" value="15" style="ellipse;whiteSpace=wrap;html=1;aspect=fixed;" vertex="1" parent="1">
          <mxGeometry x="450" y="399" width="20" height="20" as="geometry" />
        </mxCell>
        <mxCell id="SBZL3jEJlygg7BhI3k88-48" value="16" style="ellipse;whiteSpace=wrap;html=1;aspect=fixed;" vertex="1" parent="1">
          <mxGeometry x="470" y="419" width="20" height="20" as="geometry" />
        </mxCell>
        <mxCell id="SBZL3jEJlygg7BhI3k88-49" value="17" style="ellipse;whiteSpace=wrap;html=1;aspect=fixed;" vertex="1" parent="1">
          <mxGeometry x="430" y="380" width="20" height="20" as="geometry" />
        </mxCell>
        <mxCell id="SBZL3jEJlygg7BhI3k88-50" value="18" style="ellipse;whiteSpace=wrap;html=1;aspect=fixed;" vertex="1" parent="1">
          <mxGeometry x="450" y="300" width="20" height="20" as="geometry" />
        </mxCell>
        <mxCell id="SBZL3jEJlygg7BhI3k88-51" value="20" style="ellipse;whiteSpace=wrap;html=1;aspect=fixed;" vertex="1" parent="1">
          <mxGeometry x="480" y="330" width="20" height="20" as="geometry" />
        </mxCell>
        <mxCell id="SBZL3jEJlygg7BhI3k88-52" value="21" style="ellipse;whiteSpace=wrap;html=1;aspect=fixed;" vertex="1" parent="1">
          <mxGeometry x="560" y="350" width="20" height="20" as="geometry" />
        </mxCell>
        <mxCell id="SBZL3jEJlygg7BhI3k88-53" value="22" style="ellipse;whiteSpace=wrap;html=1;aspect=fixed;" vertex="1" parent="1">
          <mxGeometry x="520" y="370" width="20" height="20" as="geometry" />
        </mxCell>
        <mxCell id="SBZL3jEJlygg7BhI3k88-54" value="24" style="ellipse;whiteSpace=wrap;html=1;aspect=fixed;" vertex="1" parent="1">
          <mxGeometry x="580" y="390" width="20" height="20" as="geometry" />
        </mxCell>
        <mxCell id="SBZL3jEJlygg7BhI3k88-55" value="23" style="ellipse;whiteSpace=wrap;html=1;aspect=fixed;" vertex="1" parent="1">
          <mxGeometry x="530" y="410" width="20" height="20" as="geometry" />
        </mxCell>
        <mxCell id="SBZL3jEJlygg7BhI3k88-56" value="19&lt;span style=&quot;white-space: pre;&quot;&gt;&#x9;&lt;/span&gt;" style="ellipse;whiteSpace=wrap;html=1;aspect=fixed;" vertex="1" parent="1">
          <mxGeometry x="500" y="280" width="20" height="20" as="geometry" />
        </mxCell>
        <mxCell id="SBZL3jEJlygg7BhI3k88-57" value="25" style="ellipse;whiteSpace=wrap;html=1;aspect=fixed;" vertex="1" parent="1">
          <mxGeometry x="465" y="190" width="20" height="20" as="geometry" />
        </mxCell>
        <mxCell id="SBZL3jEJlygg7BhI3k88-58" value="26" style="ellipse;whiteSpace=wrap;html=1;aspect=fixed;" vertex="1" parent="1">
          <mxGeometry x="520" y="220" width="20" height="20" as="geometry" />
        </mxCell>
        <mxCell id="SBZL3jEJlygg7BhI3k88-59" value="27" style="ellipse;whiteSpace=wrap;html=1;aspect=fixed;" vertex="1" parent="1">
          <mxGeometry x="590" y="250" width="20" height="20" as="geometry" />
        </mxCell>
        <mxCell id="SBZL3jEJlygg7BhI3k88-60" value="28" style="ellipse;whiteSpace=wrap;html=1;aspect=fixed;" vertex="1" parent="1">
          <mxGeometry x="630" y="300" width="20" height="20" as="geometry" />
        </mxCell>
        <mxCell id="SBZL3jEJlygg7BhI3k88-61" value="29" style="ellipse;whiteSpace=wrap;html=1;aspect=fixed;" vertex="1" parent="1">
          <mxGeometry x="649" y="360" width="20" height="20" as="geometry" />
        </mxCell>
        <mxCell id="SBZL3jEJlygg7BhI3k88-62" value="30" style="ellipse;whiteSpace=wrap;html=1;aspect=fixed;" vertex="1" parent="1">
          <mxGeometry x="560" y="140" width="20" height="20" as="geometry" />
        </mxCell>
        <mxCell id="SBZL3jEJlygg7BhI3k88-63" value="31" style="ellipse;whiteSpace=wrap;html=1;aspect=fixed;" vertex="1" parent="1">
          <mxGeometry x="629" y="170" width="20" height="20" as="geometry" />
        </mxCell>
        <mxCell id="SBZL3jEJlygg7BhI3k88-64" value="33" style="ellipse;whiteSpace=wrap;html=1;aspect=fixed;" vertex="1" parent="1">
          <mxGeometry x="510" y="560" width="20" height="20" as="geometry" />
        </mxCell>
        <mxCell id="SBZL3jEJlygg7BhI3k88-65" value="34" style="ellipse;whiteSpace=wrap;html=1;aspect=fixed;" vertex="1" parent="1">
          <mxGeometry x="550" y="540" width="20" height="20" as="geometry" />
        </mxCell>
        <mxCell id="SBZL3jEJlygg7BhI3k88-66" value="35" style="ellipse;whiteSpace=wrap;html=1;aspect=fixed;" vertex="1" parent="1">
          <mxGeometry x="660" y="520" width="20" height="20" as="geometry" />
        </mxCell>
      </root>
    </mxGraphModel>
  </diagram>
</mxfile>
